<?xml version="1.0" encoding="UTF-8"?>
<!DOCTYPE svg PUBLIC "-//W3C//DTD SVG 1.1//EN" "http://www.w3.org/Graphics/SVG/1.1/DTD/svg11.dtd">
<!-- Creator: CorelDRAW X6 -->
<svg xmlns="http://www.w3.org/2000/svg" xml:space="preserve" width="73mm" height="22mm" version="1.1"
     style="shape-rendering:geometricPrecision; text-rendering:geometricPrecision; image-rendering:optimizeQuality; fill-rule:evenodd; clip-rule:evenodd"
     viewBox="0 0 9510 2866"
>
 <defs>
  <style type="text/css">
   <![CDATA[
    .fil0 {fill:none}
    .fil1 {fill:#FEFEFE}
    .fil2 {fill:#FEFEFE;fill-rule:nonzero}
   ]]>
  </style>
 </defs>
    <g id="Vrstva_x0020_1">
  <metadata id="CorelCorpID_0Corel-Layer"/>
        <rect class="fil0" width="9510" height="2866"/>
        <rect class="fil1" x="2770" y="140" width="33" height="2606"/>
        <polygon class="fil2" points="3764,837 3698,837 3698,1261 3764,1261 3764,1047 3950,1261 4029,1261 4034,1253 3846,1044 3846,1039 4019,845 4014,837 3943,837 3764,1047 "/>
        <path id="1" class="fil2"
              d="M4230 1140l0 60c-20,14 -41,22 -64,22 -20,0 -38,-11 -38,-30 0,-30 27,-47 102,-52zm65 58l0 -131c0,-79 -48,-99 -107,-99 -35,0 -75,5 -106,15l-5 10 13 39c33,-10 56,-16 82,-16 40,0 62,20 59,79l-31 3c-102,13 -139,44 -139,100 0,49 36,70 83,70 40,0 66,-10 94,-33 7,22 24,33 51,33 44,0 54,-23 41,-44 -20,4 -34,-4 -34,-27z"/>
        <path id="2" class="fil2"
              d="M4477 977l0 -96 -8 -7 -57 11 0 92 -38 0 -8 39 7 8 39 0 0 162c0,56 30,83 78,83 32,0 60,-5 88,-13l5 -9 -13 -42c-26,7 -42,11 -60,11 -23,0 -34,-15 -34,-41l0 -151 81 0 8 -42 -7 -8 -82 3z"/>
        <path id="3" class="fil2"
              d="M4696 1127l183 0 7 -8c0,-99 -37,-149 -114,-149 -71,0 -143,46 -143,154 0,108 60,146 137,146 40,0 67,-4 102,-17l3 -11 -14 -40c-29,10 -50,14 -82,14 -53,0 -77,-33 -78,-89zm2 -39c7,-51 38,-72 71,-72 36,0 53,27 54,68l-125 4z"/>
        <path id="4" class="fil2"
              d="M5087 1220c-52,0 -77,-40 -77,-100 0,-64 31,-103 87,-103 24,0 46,5 60,11l0 173c-22,11 -47,19 -70,19zm169 6c-20,4 -34,-4 -34,-27l0 -390 -8 -7 -57 11 0 163c-19,-4 -41,-7 -68,-7 -87,0 -147,60 -147,163 0,94 53,137 122,137 41,0 77,-11 100,-32 5,22 24,32 50,32 44,0 54,-23 42,-44z"/>
        <path id="5" class="fil2"
              d="M5396 1073c19,-31 50,-44 72,-44 14,0 24,4 36,11l10 -2 24 -50 -4 -10c-14,-7 -32,-10 -48,-10 -40,0 -76,24 -94,55 -2,-42 -26,-55 -56,-55 -45,0 -55,23 -41,44 20,-4 34,4 34,27l0 221 65 0 0 -188z"/>
        <path id="6" class="fil2"
              d="M5729 1140l0 60c-20,14 -41,22 -64,22 -20,0 -38,-11 -38,-30 0,-30 27,-47 102,-52zm65 58l0 -131c0,-79 -48,-99 -107,-99 -35,0 -75,5 -106,15l-5 10 13 39c33,-10 56,-16 82,-16 40,0 62,20 59,79l-31 3c-102,13 -139,44 -139,100 0,49 36,70 83,70 40,0 66,-10 94,-33 7,22 24,33 51,33 44,0 54,-23 41,-44 -20,4 -34,-4 -34,-27z"/>
        <path id="7" class="fil2"
              d="M3838 1837l0 60c-20,14 -41,22 -64,22 -20,0 -38,-11 -38,-30 0,-30 27,-47 102,-52zm65 58l0 -131c0,-79 -48,-99 -107,-99 -35,0 -75,5 -106,15l-5 10 13 39c33,-10 56,-16 82,-16 40,0 62,20 59,79l-31 3c-102,13 -139,44 -139,100 0,49 36,70 83,70 40,0 66,-10 94,-33 7,22 24,33 51,33 44,0 54,-23 41,-44 -20,4 -34,-4 -34,-27z"/>
        <path id="8" class="fil2"
              d="M4272 1958l0 -186c0,-65 -29,-106 -99,-106 -43,0 -78,16 -100,35 -8,-24 -24,-35 -53,-35 -45,0 -55,23 -41,44 20,-4 34,4 34,27l0 221 65 0 0 -213c27,-21 47,-27 72,-27 35,0 56,23 56,63l0 177 65 0z"/>
        <path id="9" class="fil2"
              d="M4500 1966c87,0 148,-56 148,-150 0,-112 -62,-151 -148,-151 -88,0 -148,56 -148,151 0,111 62,150 148,150zm0 -46c-45,0 -80,-43 -80,-104 0,-78 34,-105 79,-105 45,0 81,43 81,105 0,78 -35,104 -80,104z"/>
        <path id="10" class="fil2"
              d="M4796 1770c19,-31 50,-44 72,-44 14,0 24,4 36,11l10 -2 24 -50 -4 -10c-14,-7 -32,-10 -48,-10 -40,0 -76,24 -94,55 -2,-42 -26,-55 -56,-55 -45,0 -55,23 -41,44 20,-4 34,4 34,27l0 221 65 0 0 -188z"/>
        <path id="11" class="fil2"
              d="M5198 1712l47 0 7 -39 -7 -9 -92 10c-19,-5 -37,-8 -60,-8 -70,0 -119,36 -119,97 0,36 13,60 35,75 -38,48 -28,101 4,117 -40,26 -54,56 -54,86 0,37 30,75 122,75 99,0 161,-52 161,-123 0,-52 -34,-83 -117,-83l-63 0c-26,0 -32,-32 -14,-56 13,4 31,5 45,5 71,0 118,-36 118,-96 0,-21 -6,-39 -14,-51l0 0zm-105 109c-32,0 -57,-24 -57,-58 0,-44 26,-59 57,-59 33,0 58,24 58,59 0,42 -26,58 -57,58zm-33 142l60 0c41,0 58,18 58,41 0,37 -32,68 -91,68 -44,0 -63,-22 -63,-47 0,-19 11,-42 36,-61l0 0z"/>
        <path id="12" class="fil2"
              d="M5441 1837l0 60c-20,14 -41,22 -64,22 -20,0 -38,-11 -38,-30 0,-30 27,-47 102,-52zm65 58l0 -131c0,-79 -48,-99 -107,-99 -35,0 -75,5 -106,15l-5 10 13 39c33,-10 56,-16 82,-16 40,0 62,20 59,79l-31 3c-102,13 -139,44 -139,100 0,49 36,70 83,70 40,0 66,-10 94,-33 7,22 24,33 51,33 44,0 54,-23 41,-44 -20,4 -34,-4 -34,-27z"/>
        <path id="13" class="fil2"
              d="M5875 1958l0 -186c0,-65 -29,-106 -99,-106 -43,0 -78,16 -100,35 -8,-24 -24,-35 -53,-35 -45,0 -55,23 -41,44 20,-4 34,4 34,27l0 221 65 0 0 -213c27,-21 47,-27 72,-27 35,0 56,23 56,63l0 177 65 0z"/>
        <path id="14" class="fil2" d="M6035 1666l-57 11 0 281 65 0 0 -286 -8 -7zm-23 -134c-24,0 -43,18 -43,42 0,20 16,37 41,37 27,0 44,-22 44,-43 0,-21 -14,-36 -41,-36l0 0z"/>
        <path id="15" class="fil2"
              d="M6193 1817c0,-54 21,-96 84,-96 16,0 38,3 56,8l19 -45 -4 -10c-27,-7 -47,-10 -74,-10 -88,0 -150,59 -150,154 0,108 57,146 133,146 37,0 63,-5 97,-17l4 -11 -14 -40c-29,10 -50,14 -73,14 -48,0 -76,-35 -76,-95z"/>
        <polygon id="16" class="fil2"
                 points="6606,1674 6485,1806 6485,1505 6477,1499 6420,1510 6420,1958 6485,1958 6485,1806 6618,1958 6694,1958 6699,1949 6559,1805 6559,1800 6677,1684 6674,1674 "/>
        <path id="17" class="fil2"
              d="M6780 1823l183 0 7 -8c0,-99 -37,-149 -114,-149 -71,0 -143,46 -143,154 0,108 60,146 137,146 40,0 67,-4 102,-17l3 -11 -14 -40c-29,10 -50,14 -82,14 -53,0 -77,-33 -78,-89zm2 -39c7,-51 38,-72 71,-72 36,0 53,27 54,68l-125 4zm24 -159l40 0 88 -107 -4 -9 -60 0 -68 109 4 7z"/>
        <path id="18" class="fil2"
              d="M7275 1817c0,-54 21,-96 84,-96 16,0 38,3 56,8l19 -45 -4 -10c-27,-7 -47,-10 -74,-10 -88,0 -150,59 -150,154 0,108 57,146 133,146 37,0 63,-5 97,-17l4 -11 -14 -40c-29,10 -50,14 -73,14 -48,0 -76,-35 -76,-95z"/>
        <path id="19" class="fil2"
              d="M7567 1745c28,-21 47,-27 72,-27 35,0 56,23 56,63l0 177 65 0 0 -186c0,-65 -29,-106 -99,-106 -38,0 -67,10 -95,32l0 -192 -8 -7 -57 11 0 448 65 0 0 -213z"/>
        <path id="20" class="fil2"
              d="M7908 1823l183 0 7 -8c0,-99 -37,-149 -114,-149 -71,0 -143,46 -143,154 0,108 60,146 137,146 40,0 67,-4 102,-17l3 -11 -14 -40c-29,10 -50,14 -82,14 -53,0 -77,-33 -78,-89zm2 -39c7,-51 38,-72 71,-72 36,0 53,27 54,68l-125 4z"/>
        <path id="21" class="fil2"
              d="M8411 1705c-14,-26 -39,-39 -79,-39 -38,0 -69,16 -91,35 -8,-24 -24,-35 -53,-35 -45,0 -55,23 -41,44 20,-4 34,4 34,27l0 221 65 0 0 -213c27,-21 43,-27 66,-27 35,0 48,23 48,63l0 177 65 0 0 -185c0,-9 -1,-19 -3,-27 30,-22 46,-29 69,-29 35,0 48,23 48,63l0 177 65 0 0 -186c0,-65 -24,-106 -93,-106 -38,0 -71,16 -100,39z"/>
        <path id="22" class="fil2" d="M8765 1666l-57 11 0 281 65 0 0 -286 -8 -7zm-23 -134c-24,0 -43,18 -43,42 0,20 16,37 41,37 27,0 44,-22 44,-43 0,-21 -14,-36 -41,-36l0 0z"/>
        <path id="23" class="fil2"
              d="M8920 1823l183 0 7 -8c0,-99 -37,-149 -114,-149 -71,0 -143,46 -143,154 0,108 60,146 137,146 40,0 67,-4 102,-17l3 -11 -14 -40c-29,10 -50,14 -82,14 -53,0 -77,-33 -78,-89zm2 -39c7,-51 38,-72 71,-72 36,0 53,27 54,68l-125 4z"/>
        <path class="fil1"
              d="M1088 2257c123,-173 692,-710 840,-1622 -367,109 -954,94 -1341,12 -18,119 -137,214 -259,230 111,703 649,1214 760,1379zm-265 -1147l-192 0 0 12c64,4 82,69 93,161 6,50 10,107 17,169 7,60 11,117 18,170 18,141 108,243 332,250 166,-5 259,-64 305,-150 28,-51 37,-113 42,-174 7,-85 16,-180 24,-253 12,-110 31,-180 99,-173l0 -13 -191 0 -41 508c-20,123 -131,191 -240,185 0,-144 0,-322 0,-465 134,6 220,-60 227,-253 0,-193 -127,-237 -176,-241 -127,-2 -348,12 -401,-17l-67 65 317 0 0 897c-68,-7 -117,-61 -141,-171l-25 -508zm267 -215l0 396c67,4 120,-57 125,-198 6,-126 -34,-205 -125,-198z"/>
 </g>
</svg>
