<?xml version="1.0" encoding="UTF-8"?>
<!DOCTYPE svg PUBLIC "-//W3C//DTD SVG 1.1//EN" "http://www.w3.org/Graphics/SVG/1.1/DTD/svg11.dtd">
<!-- Creator: CorelDRAW X6 -->
<svg xmlns="http://www.w3.org/2000/svg" xml:space="preserve" width="73mm" height="22mm" version="1.1"
     style="shape-rendering:geometricPrecision; text-rendering:geometricPrecision; image-rendering:optimizeQuality; fill-rule:evenodd; clip-rule:evenodd"
     viewBox="0 0 2638 795"
>
 <defs>
  <style type="text/css">
   <![CDATA[
    .fil0 {fill:none}
    .fil1 {fill:#5D5E60}
    .fil3 {fill:#EB6D25}
    .fil2 {fill:#5D5E60;fill-rule:nonzero}
   ]]>
  </style>
 </defs>
    <g id="Vrstva_x0020_1">
  <metadata id="CorelCorpID_0Corel-Layer"/>
        <rect class="fil0" width="2638" height="795"/>
        <rect class="fil1" x="768" y="39" width="9" height="723"/>
        <polygon class="fil2"
                 points="1044,232 1026,232 1026,350 1044,350 1044,290 1096,350 1117,350 1119,348 1067,290 1067,288 1115,234 1113,232 1094,232 1044,290 "/>
        <path id="1" class="fil2"
              d="M1173 316l0 17c-5,4 -11,6 -18,6 -6,0 -10,-3 -10,-8 0,-8 7,-13 28,-14zm18 16l0 -36c0,-22 -13,-27 -30,-27 -10,0 -21,1 -29,4l-1 3 3 11c9,-3 16,-4 23,-4 11,0 17,6 16,22l-9 1c-28,3 -38,12 -38,28 0,14 10,19 23,19 11,0 18,-3 26,-9 2,6 7,9 14,9 12,0 15,-6 11,-12 -5,1 -9,-1 -9,-8z"/>
        <path id="2" class="fil2"
              d="M1242 271l0 -27 -2 -2 -16 3 0 26 -10 0 -2 11 2 2 11 0 0 45c0,16 8,23 22,23 9,0 17,-1 25,-4l1 -2 -4 -12c-7,2 -12,3 -17,3 -6,0 -9,-4 -9,-11l0 -42 23 0 2 -12 -2 -2 -23 1z"/>
        <path id="3" class="fil2"
              d="M1302 312l51 0 2 -2c0,-28 -10,-41 -32,-41 -20,0 -40,13 -40,43 0,30 17,41 38,41 11,0 19,-1 28,-5l1 -3 -4 -11c-8,3 -14,4 -23,4 -15,0 -21,-9 -22,-25zm0 -11c2,-14 11,-20 20,-20 10,0 15,8 15,19l-35 1z"/>
        <path id="4" class="fil2"
              d="M1411 338c-14,0 -21,-11 -21,-28 0,-18 9,-29 24,-29 7,0 13,1 17,3l0 48c-6,3 -13,5 -19,5zm47 2c-5,1 -9,-1 -9,-8l0 -108 -2 -2 -16 3 0 45c-5,-1 -11,-2 -19,-2 -24,0 -41,17 -41,45 0,26 15,38 34,38 11,0 21,-3 28,-9 1,6 7,9 14,9 12,0 15,-6 12,-12z"/>
        <path id="5" class="fil2"
              d="M1497 298c5,-9 14,-12 20,-12 4,0 7,1 10,3l3 0 7 -14 -1 -3c-4,-2 -9,-3 -13,-3 -11,0 -21,7 -26,15 -1,-12 -7,-15 -15,-15 -12,0 -15,6 -11,12 5,-1 9,1 9,8l0 61 18 0 0 -52z"/>
        <path id="6" class="fil2"
              d="M1589 316l0 17c-5,4 -11,6 -18,6 -6,0 -10,-3 -10,-8 0,-8 7,-13 28,-14zm18 16l0 -36c0,-22 -13,-27 -30,-27 -10,0 -21,1 -29,4l-1 3 3 11c9,-3 16,-4 23,-4 11,0 17,6 16,22l-9 1c-28,3 -38,12 -38,28 0,14 10,19 23,19 11,0 18,-3 26,-9 2,6 7,9 14,9 12,0 15,-6 11,-12 -5,1 -9,-1 -9,-8z"/>
        <path id="7" class="fil2"
              d="M1064 510l0 17c-5,4 -11,6 -18,6 -6,0 -10,-3 -10,-8 0,-8 7,-13 28,-14zm18 16l0 -36c0,-22 -13,-27 -30,-27 -10,0 -21,1 -29,4l-1 3 3 11c9,-3 16,-4 23,-4 11,0 17,6 16,22l-9 1c-28,3 -38,12 -38,28 0,14 10,19 23,19 11,0 18,-3 26,-9 2,6 7,9 14,9 12,0 15,-6 11,-12 -5,1 -9,-1 -9,-8z"/>
        <path id="8" class="fil2"
              d="M1185 543l0 -52c0,-18 -8,-29 -27,-29 -12,0 -22,4 -28,10 -2,-7 -7,-10 -15,-10 -12,0 -15,6 -11,12 5,-1 9,1 9,8l0 61 18 0 0 -59c8,-6 13,-8 20,-8 10,0 16,6 16,18l0 49 18 0z"/>
        <path id="9" class="fil2"
              d="M1248 545c24,0 41,-16 41,-42 0,-31 -17,-42 -41,-42 -24,0 -41,16 -41,42 0,31 17,42 41,42zm0 -13c-13,0 -22,-12 -22,-29 0,-22 9,-29 22,-29 13,0 22,12 22,29 0,22 -10,29 -22,29z"/>
        <path id="10" class="fil2"
              d="M1330 491c5,-9 14,-12 20,-12 4,0 7,1 10,3l3 0 7 -14 -1 -3c-4,-2 -9,-3 -13,-3 -11,0 -21,7 -26,15 -1,-12 -7,-15 -15,-15 -12,0 -15,6 -11,12 5,-1 9,1 9,8l0 61 18 0 0 -52z"/>
        <path id="11" class="fil2"
              d="M1442 475l13 0 2 -11 -2 -2 -26 3c-5,-1 -10,-2 -17,-2 -20,0 -33,10 -33,27 0,10 3,17 10,21 -11,13 -8,28 1,32 -11,7 -15,15 -15,24 0,10 8,21 34,21 28,0 45,-14 45,-34 0,-14 -9,-23 -32,-23l-17 0c-7,0 -9,-9 -4,-15 3,1 9,1 12,1 20,0 33,-10 33,-27 0,-6 -2,-11 -4,-14l0 0zm-29 30c-9,0 -16,-7 -16,-16 0,-12 7,-16 16,-16 9,0 16,7 16,16 0,12 -7,16 -16,16zm-9 39l17 0c11,0 16,5 16,11 0,10 -9,19 -25,19 -12,0 -17,-6 -17,-13 0,-5 3,-12 10,-17l0 0z"/>
        <path id="12" class="fil2"
              d="M1509 510l0 17c-5,4 -11,6 -18,6 -6,0 -10,-3 -10,-8 0,-8 7,-13 28,-14zm18 16l0 -36c0,-22 -13,-27 -30,-27 -10,0 -21,1 -29,4l-1 3 3 11c9,-3 16,-4 23,-4 11,0 17,6 16,22l-9 1c-28,3 -38,12 -38,28 0,14 10,19 23,19 11,0 18,-3 26,-9 2,6 7,9 14,9 12,0 15,-6 11,-12 -5,1 -9,-1 -9,-8z"/>
        <path id="13" class="fil2"
              d="M1629 543l0 -52c0,-18 -8,-29 -27,-29 -12,0 -22,4 -28,10 -2,-7 -7,-10 -15,-10 -12,0 -15,6 -11,12 5,-1 9,1 9,8l0 61 18 0 0 -59c8,-6 13,-8 20,-8 10,0 16,6 16,18l0 49 18 0z"/>
        <path id="14" class="fil2"
              d="M1674 462l-16 3 0 78 18 0 0 -79 -2 -2zm-6 -37c-7,0 -12,5 -12,12 0,5 4,10 11,10 7,0 12,-6 12,-12 0,-6 -4,-10 -11,-10l0 0z"/>
        <path id="15" class="fil2"
              d="M1718 504c0,-15 6,-27 23,-27 4,0 11,1 16,2l5 -12 -1 -3c-7,-2 -13,-3 -21,-3 -24,0 -42,16 -42,43 0,30 16,41 37,41 10,0 18,-1 27,-5l1 -3 -4 -11c-8,3 -14,4 -20,4 -13,0 -21,-10 -21,-26z"/>
        <polygon id="16" class="fil2"
                 points="1832,464 1799,501 1799,418 1796,416 1781,419 1781,543 1799,543 1799,501 1835,543 1857,543 1858,540 1819,501 1819,499 1852,467 1851,464 "/>
        <path id="17" class="fil2"
              d="M1880 506l51 0 2 -2c0,-28 -10,-41 -32,-41 -20,0 -40,13 -40,43 0,30 17,41 38,41 11,0 19,-1 28,-5l1 -3 -4 -11c-8,3 -14,4 -23,4 -15,0 -21,-9 -22,-25zm0 -11c2,-14 11,-20 20,-20 10,0 15,8 15,19l-35 1zm7 -44l11 0 25 -30 -1 -2 -17 0 -19 30 1 2z"/>
        <path id="18" class="fil2"
              d="M2018 504c0,-15 6,-27 23,-27 4,0 11,1 16,2l5 -12 -1 -3c-7,-2 -13,-3 -21,-3 -24,0 -42,16 -42,43 0,30 16,41 37,41 10,0 18,-1 27,-5l1 -3 -4 -11c-8,3 -14,4 -20,4 -13,0 -21,-10 -21,-26z"/>
        <path id="19" class="fil2"
              d="M2099 484c8,-6 13,-8 20,-8 10,0 16,6 16,18l0 49 18 0 0 -52c0,-18 -8,-29 -27,-29 -10,0 -19,3 -26,9l0 -53 -2 -2 -16 3 0 124 18 0 0 -59z"/>
        <path id="20" class="fil2"
              d="M2193 506l51 0 2 -2c0,-28 -10,-41 -32,-41 -20,0 -40,13 -40,43 0,30 17,41 38,41 11,0 19,-1 28,-5l1 -3 -4 -11c-8,3 -14,4 -23,4 -15,0 -21,-9 -22,-25zm0 -11c2,-14 11,-20 20,-20 10,0 15,8 15,19l-35 1z"/>
        <path id="21" class="fil2"
              d="M2333 473c-4,-7 -11,-11 -22,-11 -10,0 -19,4 -25,10 -2,-7 -7,-10 -15,-10 -12,0 -15,6 -11,12 5,-1 9,1 9,8l0 61 18 0 0 -59c8,-6 12,-8 18,-8 10,0 13,6 13,18l0 49 18 0 0 -51c0,-2 0,-5 -1,-7 8,-6 13,-8 19,-8 10,0 13,6 13,18l0 49 18 0 0 -52c0,-18 -7,-29 -26,-29 -10,0 -20,4 -28,11z"/>
        <path id="22" class="fil2"
              d="M2431 462l-16 3 0 78 18 0 0 -79 -2 -2zm-6 -37c-7,0 -12,5 -12,12 0,5 4,10 11,10 7,0 12,-6 12,-12 0,-6 -4,-10 -11,-10l0 0z"/>
        <path id="23" class="fil2"
              d="M2474 506l51 0 2 -2c0,-28 -10,-41 -32,-41 -20,0 -40,13 -40,43 0,30 17,41 38,41 11,0 19,-1 28,-5l1 -3 -4 -11c-8,3 -14,4 -23,4 -15,0 -21,-9 -22,-25zm0 -11c2,-14 11,-20 20,-20 10,0 15,8 15,19l-35 1z"/>
        <path class="fil3"
              d="M302 626c34,-48 192,-197 233,-450 -102,30 -265,26 -372,3 -5,33 -38,59 -72,64 31,195 180,337 211,383zm-73 -318l-53 0 0 3c18,1 23,19 26,45 2,14 3,30 5,47 2,17 3,33 5,47 5,39 30,67 92,69 46,-1 72,-18 85,-41 8,-14 10,-31 12,-48 2,-23 4,-50 7,-70 3,-31 8,-50 27,-48l0 -4 -53 0 -11 141c-5,34 -36,53 -66,51 0,-40 0,-89 0,-129 37,2 61,-17 63,-70 0,-53 -35,-66 -49,-67 -35,-1 -96,3 -111,-5l-19 18 88 0 0 249c-19,-2 -32,-17 -39,-47l-7 -141zm74 -60l0 110c19,1 33,-16 35,-55 2,-35 -9,-57 -35,-55z"/>
 </g>
</svg>
